#!OML:ASF F:\VICON\USERDATA\INSTALL\Justin_Nancy\Justin_Nancy.ASF
:FULLY-SPECIFIED
:DEGREES
112
root -0.93451 15.8379 21.3962 -11.0394 4.46052 -0.698137
lowerback 12.2958 -2.21586 0.266535
upperback -0.0450448 -2.7284 2.55207
thorax -6.83752 -1.29732 3.0374
lowerneck -21.3845 -2.90228 -10.0662
upperneck 21.7535 -2.19829 5.75561
head 10.7247 -1.14038 3.41785
rclavicle 1.8487e-014 4.77083e-015
rhumerus -64.0665 -3.18963 -75.6451
rradius 82.0049
rwrist -2.15619
rhand -29.3838 28.3736
rfingers 7.12502
rthumb -2.72239 -1.5888
lclavicle 1.8487e-014 4.77083e-015
lhumerus -29.1633 -0.198003 85.7516
lradius 111.332
lwrist 12.967
lhand -23.6811 8.28028
lfingers 7.12502
lthumb 2.78529 38.2418
rfemur -30.1963 -1.58878 19.5351
rtibia 36.1681
rfoot 7.17312 5.09194
rtoes 4.13181
lfemur 4.44841 -4.31335 -19.1619
ltibia 65.0572
lfoot -14.6867 -3.0521
ltoes -22.9486
113
root -0.973095 15.8636 21.6297 -11.2924 4.2372 -1.45862
lowerback 12.6628 -2.24744 0.576817
upperback 0.187338 -2.69265 2.97299
thorax -6.79266 -1.28427 3.31318
lowerneck -21.5439 -2.81791 -10.0822
upperneck 21.3683 -2.05292 5.78037
head 10.6 -1.06293 3.44393
rclavicle 1.64991e-014 -1.03368e-014
rhumerus -62.4283 -2.56294 -75.458
rradius 80.248
rwrist -2.54768
rhand -29.2423 28.715
rfingers 7.12502
rthumb -2.5857 -1.24907
lclavicle 1.64991e-014 -1.03368e-014
lhumerus -29.3688 0.713312 86.2535
lradius 109.663
lwrist 13.2076
lhand -24.2366 7.70904
lfingers 7.12502
lthumb 2.24888 37.6769
rfemur -30.2333 -1.5417 20.7755
rtibia 37.9506
rfoot 5.88053 4.60787
rtoes 3.64255
lfemur 3.87894 -4.3503 -18.0856
ltibia 66.7221
lfoot -14.2341 -3.30348
ltoes -21.6351
114
root -1.0099 15.8821 21.8688 -11.4647 4.50388 -1.27411
lowerback 12.8422 -2.30473 -0.115401
upperback 0.356142 -2.8613 3.12002
thorax -6.6632 -1.34554 3.89378
lowerneck -21.3506 -2.72466 -9.92293
upperneck 20.8575 -1.91878 5.52532
head 10.3619 -1.01236 3.33314
rclavicle 3.06128e-014 -5.56597e-015
rhumerus -60.6551 -1.84974 -75.2788
rradius 78.2116
rwrist -2.79692
rhand -29.0362 29.0925
rfingers 7.12502
rthumb -2.38666 -0.873888
lclavicle 3.06128e-014 -5.56597e-015
lhumerus -29.6033 1.6806 86.736
lradius 107.616
lwrist 13.6667
lhand -24.4205 7.65159
lfingers 7.12502
lthumb 2.07127 37.6213
rfemur -29.8056 -1.57439 20.736
rtibia 39.6935
rfoot 4.24692 4.0839
rtoes 2.51601
lfemur 3.22445 -4.79943 -18.394
ltibia 68.2492
lfoot -13.9253 -3.17723
ltoes -20.2967
115
root -1.04694 15.887 22.1019 -11.484 5.48012 -0.221677
lowerback 13.069 -2.4902 -1.7917
upperback 0.356522 -3.3635 3.03662
thorax -6.66532 -1.54057 4.8575
lowerneck -21.2891 -2.63145 -9.92202
upperneck 20.7683 -1.78179 5.47948
head 10.3058 -0.953956 3.33493
rclavicle 4.65156e-014 -2.22639e-014
rhumerus -58.8211 -1.09344 -75.1004
rradius 75.979
rwrist -2.89464
rhand -28.3735 29.6431
rfingers 7.12502
rthumb -1.74667 -0.3295
lclavicle 4.65156e-014 -2.22639e-014
lhumerus -30.0545 2.80177 87.227
lradius 105.373
lwrist 14.1584
lhand -24.4098 8.76416
lfingers 7.12502
lthumb 2.08155 38.7338
rfemur -29.5667 -1.67096 19.427
rtibia 41.1438
rfoot 3.0372 3.29812
rtoes 2.4267
lfemur 2.27314 -5.84635 -19.9488
ltibia 69.7002
lfoot -13.6284 -2.90466
ltoes -19.3225
116
root -1.08427 15.9131 22.3168 -11.3337 6.17535 0.0793507
lowerback 13.136 -2.66452 -2.61044
upperback 0.302168 -3.7147 3.11228
thorax -6.67137 -1.68499 5.47221
lowerneck -21.3753 -2.62599 -10.1596
upperneck 21.0475 -1.76651 5.77148
head 10.4262 -0.935043 3.48952
rclavicle 3.06128e-014 -8.74653e-015
rhumerus -56.9011 -0.62479 -74.9001
rradius 73.5814
rwrist -2.53496
rhand -27.7778 29.9816
rfingers 7.12502
rthumb -1.17135 0.00508151
lclavicle 3.06128e-014 -8.74653e-015
lhumerus -30.2278 3.6915 87.7433
lradius 102.503
lwrist 15.2819
lhand -25.8225 9.57218
lfingers 7.12502
lthumb 0.717149 39.5507
rfemur -29.4464 -1.40115 19.0341
rtibia 42.2881
rfoot 1.93604 2.12752
rtoes 2.19149
lfemur 0.893452 -6.71951 -20.4854
ltibia 71.1425
lfoot -13.455 -2.67047
ltoes -19.4933
117
root -1.11227 15.9606 22.5115 -10.9674 5.94185 -0.830068
lowerback 12.9406 -2.70396 -1.89288
upperback 0.166217 -3.63192 3.45767
thorax -6.73819 -1.65793 5.41403
lowerneck -21.2331 -2.64662 -10.2813
upperneck 21.1732 -1.83231 5.998
head 10.4545 -0.951697 3.58519
rclavicle -4.77083e-014 3.65764e-014
rhumerus -55.0305 -0.562309 -74.6485
rradius 71.0883
rwrist -1.60217
rhand -27.4113 29.7438
rfingers 7.12502
rthumb -0.817305 -0.234382
lclavicle -4.77083e-014 3.65764e-014
lhumerus -30.2525 4.28755 88.3086
lradius 99.1512
lwrist 17.1184
lhand -29.4397 9.34367
lfingers 7.12502
lthumb -2.77639 39.3053
rfemur -29.4944 -0.40672 20.2199
rtibia 42.9345
rfoot 1.2036 0.945894
rtoes 1.50903
lfemur -0.905093 -6.77032 -19.3066
ltibia 72.5632
lfoot -13.4849 -2.42402
ltoes -19.4607
118
root -1.1386 16.0114 22.6987 -10.6091 5.7375 -1.53773
lowerback 12.9469 -2.71246 -1.36665
upperback -0.104928 -3.53831 3.74901
thorax -7.05531 -1.61158 5.42709
lowerneck -20.9595 -2.65675 -10.2875
upperneck 21.3509 -1.87228 5.96734
head 10.4721 -0.981226 3.57212
rclavicle -3.3694e-014 3.18055e-015
rhumerus -53.3743 -0.936616 -74.1933
rradius 68.5749
rwrist 0.240045
rhand -26.8513 29.7458
rfingers 7.12502
rthumb -0.276484 -0.233805
lclavicle -3.3694e-014 3.18055e-015
lhumerus -30.6048 5.24745 88.5301
lradius 95.9646
lwrist 16.6885
lhand -28.4353 11.5453
lfingers 7.12502
lthumb -1.80636 41.5174
rfemur -29.3628 0.605108 21.1811
rtibia 43.2667
rfoot 0.669447 -0.133373
rtoes 0.759152
lfemur -2.72128 -6.71785 -18.362
ltibia 73.7824
lfoot -13.6269 -1.90893
ltoes -19.1532
119
root -1.15719 16.0627 22.8885 -10.4649 5.93154 -1.53403
lowerback 13.0102 -2.72274 -1.5506
upperback -0.181616 -3.57292 3.82541
thorax -7.15383 -1.61662 5.62912
lowerneck -20.851 -2.68404 -10.1849
upperneck 21.4969 -1.91278 5.78329
head 10.5065 -1.01797 3.48446
rclavicle -3.99557e-014 6.59965e-014
rhumerus -51.689 -1.73222 -73.6441
rradius 66.2129
rwrist 2.62855
rhand -26.3637 29.5793
rfingers 7.12502
rthumb 0.194451 -0.400383
lclavicle -3.99557e-014 6.59965e-014
lhumerus -30.773 6.05939 88.7785
lradius 92.5702
lwrist 16.1941
lhand -28.3341 13.5353
lfingers 7.12502
lthumb -1.70857 43.5082
rfemur -28.8046 1.24799 21.2378
rtibia 43.4039
rfoot -0.00560604 -1.01915
rtoes 0.335176
lfemur -4.12847 -7.05831 -18.5363
ltibia 74.6729
lfoot -13.7991 -1.10526
ltoes -19.0854
120
root -1.16006 16.1263 23.0765 -10.3535 6.27031 -0.924164
lowerback 12.9239 -2.66967 -2.09684
upperback -0.134364 -3.60015 3.64165
thorax -7.02985 -1.61869 5.73757
lowerneck -20.3932 -2.77857 -10.2197
upperneck 21.3356 -2.07342 5.75189
head 10.3779 -1.10092 3.44998
rclavicle 1.95803e-014 -3.18055e-015
rhumerus -50.289 -2.85496 -73.2163
rradius 64.1838
rwrist 4.14261
rhand -25.5455 29.2182
rfingers 7.12502
rthumb 0.984742 -0.759285
lclavicle 1.95803e-014 -3.18055e-015
lhumerus -30.7368 6.69397 88.9651
lradius 88.8285
lwrist 15.2112
lhand -27.5079 13.175
lfingers 7.12502
lthumb -0.910597 43.1528
rfemur -28.0372 1.39549 20.5786
rtibia 43.3647
rfoot -0.621187 -1.43388
rtoes -0.549593
lfemur -5.31122 -7.4853 -19.6272
ltibia 75.2076
lfoot -13.8767 -0.0928888
ltoes -19.4219
121
root -1.16166 16.2002 23.2514 -10.0948 6.66082 -0.444204
lowerback 12.7308 -2.64634 -2.39386
upperback -0.157171 -3.62613 3.45562
thorax -6.93632 -1.62722 5.69778
lowerneck -19.9746 -2.93417 -10.2011
upperneck 21.1639 -2.30462 5.61168
head 10.258 -1.22457 3.35739
rclavicle 3.47873e-015 -3.97569e-015
rhumerus -48.9658 -4.32261 -72.7847
rradius 62.1638
rwrist 5.35649
rhand -24.3665 28.4039
rfingers 7.12502
rthumb 2.12339 -1.56524
lclavicle 3.47873e-015 -3.97569e-015
lhumerus -30.7487 7.12618 89.0876
lradius 85.1808
lwrist 13.7175
lhand -26.9889 12.0119
lfingers 7.12502
lthumb -0.409349 41.9912
rfemur -27.3147 1.33929 20.0624
rtibia 43.082
rfoot -1.03007 -1.74583
rtoes -1.60665
lfemur -6.71128 -7.93062 -20.4791
ltibia 75.5482
lfoot -13.7953 0.878105
ltoes -18.8606
122
root -1.16788 16.2728 23.4102 -9.91475 6.93292 -0.795163
lowerback 12.7518 -2.70803 -1.89185
upperback -0.224273 -3.62719 3.51483
thorax -7.04696 -1.63936 5.48143
lowerneck -19.8273 -3.05641 -10.107
upperneck 21.1223 -2.46053 5.37249
head 10.2263 -1.31828 3.23112
rclavicle -5.96354e-014 4.37326e-014
rhumerus -47.6552 -5.90345 -72.3079
rradius 60.1434
rwrist 6.95233
rhand -23.5637 27.7241
rfingers 7.12502
rthumb 2.89875 -2.23592
lclavicle -5.96354e-014 4.37326e-014
lhumerus -30.8534 7.46876 89.276
lradius 81.9282
lwrist 12.3392
lhand -27.5794 12.5492
lfingers 7.12502
lthumb -0.979651 42.5267
rfemur -26.5023 1.53062 20.4833
rtibia 42.5118
rfoot -1.24774 -2.30347
rtoes -2.08091
lfemur -8.20714 -8.19424 -20.1902
ltibia 75.7856
lfoot -13.8073 1.69185
ltoes -19.3994
123
root -1.17574 16.354 23.575 -9.95462 6.94583 -1.75278
lowerback 12.8755 -2.73593 -0.817031
upperback -0.249728 -3.48187 3.7484
thorax -7.20878 -1.59682 5.10712
lowerneck -19.8679 -3.13413 -10.1123
upperneck 21.3634 -2.56159 5.34401
head 10.33 -1.37246 3.2111
rclavicle -4.47266e-015 2.38542e-015
rhumerus -46.7124 -7.36188 -71.8541
rradius 58.4608
rwrist 8.1093
rhand -23.1567 26.9823
rfingers 7.12502
rthumb 3.29182 -2.97199
lclavicle -4.47266e-015 2.38542e-015
lhumerus -31.0202 7.80063 89.4229
lradius 78.7092
lwrist 11.0376
lhand -27.8977 13.291
lfingers 7.12502
lthumb -1.28713 43.2669
rfemur -25.4593 2.02432 21.6296
rtibia 41.7767
rfoot -1.39968 -3.02128
rtoes -1.95868
lfemur -9.44043 -8.18297 -19.112
ltibia 75.8084
lfoot -13.9638 2.24697
ltoes -19.7669
124
root -1.17364 16.4411 23.7471 -9.83383 6.95287 -2.26796
lowerback 12.7224 -2.7184 -0.0626352
upperback -0.308776 -3.33927 3.81867
thorax -7.2378 -1.55169 4.72187
lowerneck -19.8324 -3.21547 -10.1366
upperneck 21.5939 -2.70838 5.46335
head 10.4217 -1.43205 3.24101
rclavicle -7.02704e-014 3.33958e-014
rhumerus -46.1053 -8.68206 -71.5748
rradius 57.2039
rwrist 8.0849
rhand -22.2518 25.7148
rfingers 7.12502
rthumb 4.16565 -4.22419
lclavicle -7.02704e-014 3.33958e-014
lhumerus -31.2634 8.07086 89.4117
lradius 75.4348
lwrist 9.64353
lhand -28.392 14.2889
lfingers 7.12502
lthumb -1.76448 44.2614
rfemur -24.4511 2.4077 22.281
rtibia 40.936
rfoot -1.48604 -3.56741
rtoes -1.85745
lfemur -10.657 -8.09937 -18.5998
ltibia 75.5713
lfoot -14.2052 2.68821
ltoes -19.8435
125
root -1.16113 16.5233 23.9033 -9.43473 7.28113 -1.80956
lowerback 12.5585 -2.7026 -0.163266
upperback -0.481949 -3.34928 3.58988
thorax -7.3376 -1.55371 4.53321
lowerneck -19.7504 -3.31839 -10.201
upperneck 21.7444 -2.87214 5.56522
head 10.4784 -1.50394 3.26726
rclavicle -9.34288e-015 1.51076e-014
rhumerus -45.4539 -9.79102 -71.4255
rradius 56.0024
rwrist 7.36568
rhand -21.36 24.1478
rfingers 7.12502
rthumb 5.0268 -5.77262
lclavicle -9.34288e-015 1.51076e-014
lhumerus -31.6144 8.2484 89.329
lradius 72.2276
lwrist 8.60278
lhand -28.7129 14.8436
lfingers 7.12502
lthumb -2.07448 44.8133
rfemur -23.6303 2.2796 21.7595
rtibia 40.0682
rfoot -1.6434 -3.63393
rtoes -1.5975
lfemur -12.0435 -8.31919 -19.3673
ltibia 75.0275
lfoot -14.481 3.1334
ltoes -18.8832
126
root -1.15244 16.6095 24.0543 -9.01127 7.6339 -1.63726
lowerback 12.4962 -2.70319 -0.0127892
upperback -0.724219 -3.33175 3.46811
thorax -7.57959 -1.54615 4.32318
lowerneck -19.7797 -3.45016 -10.3252
upperneck 22.0621 -3.03909 5.62551
head 10.6187 -1.58875 3.29064
rclavicle 5.82439e-014 -3.65764e-014
rhumerus -44.8921 -10.8133 -71.2561
rradius 54.878
rwrist 6.17985
rhand -20.7959 22.7335
rfingers 7.12502
rthumb 5.57143 -7.1733
lclavicle 5.82439e-014 -3.65764e-014
lhumerus -31.9476 8.36252 89.3141
lradius 69.0805
lwrist 8.1297
lhand -27.3191 13.1225
lfingers 7.12502
lthumb -0.72829 43.101
rfemur -22.8585 2.13981 21.5485
rtibia 39.1633
rfoot -1.84681 -3.84678
rtoes -0.976857
lfemur -13.5886 -8.57371 -19.6931
ltibia 74.2954
lfoot -14.7996 3.22929
ltoes -15.8547
